# xmcd
#
# Track frame offsets:
#	150
#	22636
#	41012
#	58700
#	77395
#	94958
#	116690
#	131096
#	148190
#	168966
#	187440
#	206221
#	224091
#	245737
#	261154
#	282708
#	297459
#	318102
#
# Disc length: 4467 seconds
#
# Revision: 1
# Processed by: cddbd v1.4PL0 Copyright (c) Steve Scherf et al.
# Submitted via: EasyCDDAExtractor 5.0.6
#
DISCID=26117112
DTITLE=TEXAS - GREATEST HITS
DYEAR=1900
DGENRE=
TTITLE0=I Don't Want A Lover
TTITLE1=In Demand
TTITLE2=Say What You Want
TTITLE3=Summer Son
TTITLE4=Inner Smile
TTITLE5=06 - texas - so in love with you
TTITLE6=Black eyed boy
TTITLE7=08 - texas - so called friend
TTITLE8=Everyday Now
TTITLE9=In Our Lifetime
TTITLE10=11 - texas - halo
TTITLE11=Guitar Song
TTITLE12=Prayer For You
TTITLE13=When We Are Together
TTITLE14=15 Texas - 06 - insane
TTITLE15=16 - texas - tired of being alone
TTITLE16=Put Your Arms Around Me
TTITLE17=Say What You Want F Method Man
EXTD=
EXTT0=
EXTT1=
EXTT2=
EXTT3=
EXTT4=
EXTT5=
EXTT6=
EXTT7=
EXTT8=
EXTT9=
EXTT10=
EXTT11=
EXTT12=
EXTT13=
EXTT14=
EXTT15=
EXTT16=
EXTT17=
PLAYORDER=
